<svg width="1000" height="1000" viewBox="0 0 1000 1000" fill="none" xmlns="http://www.w3.org/2000/svg">
<path d="M1000 0H0V1000H1000V0Z" fill="#F4F5F8"/>
<path d="M243.9 634.7V665.6H182" stroke="#E5E5E5" stroke-width="6" stroke-miterlimit="10" stroke-linecap="round" stroke-linejoin="round"/>
<path d="M305.7 665.6H243.9V634.7" stroke="#E5E5E5" stroke-width="6" stroke-miterlimit="10" stroke-linecap="round" stroke-linejoin="round"/>
<path d="M274.8 665.6H212.9V696.5H274.8V665.6Z" stroke="#E5E5E5" stroke-width="6" stroke-miterlimit="10" stroke-linecap="round" stroke-linejoin="round"/>
<path d="M261.4 727.5H243.9V696.5H305.7" stroke="#E5E5E5" stroke-width="6" stroke-miterlimit="10" stroke-linecap="round" stroke-linejoin="round"/>
<path d="M182 696.5H243.9V727.5H193.7" stroke="#E5E5E5" stroke-width="6" stroke-miterlimit="10" stroke-linecap="round" stroke-linejoin="round"/>
<path d="M160.9 665.6H212.9V696.5H182" stroke="#E5E5E5" stroke-width="6" stroke-miterlimit="10" stroke-linecap="round" stroke-linejoin="round"/>
<path d="M319.4 696.5H274.8V665.6H296.2" stroke="#E5E5E5" stroke-width="6" stroke-miterlimit="10" stroke-linecap="round" stroke-linejoin="round"/>
<path d="M817.6 441.4V472.3H879.5" stroke="#E5E5E5" stroke-width="6" stroke-miterlimit="10" stroke-linecap="round" stroke-linejoin="round"/>
<path d="M755.8 472.3H817.6V441.4" stroke="#E5E5E5" stroke-width="6" stroke-miterlimit="10" stroke-linecap="round" stroke-linejoin="round"/>
<path d="M786.686 503.329L848.586 503.329L848.586 472.429L786.686 472.429L786.686 503.329Z" stroke="#E5E5E5" stroke-width="6" stroke-miterlimit="10" stroke-linecap="round" stroke-linejoin="round"/>
<path d="M800.1 534.2H817.6V503.3H755.8" stroke="#E5E5E5" stroke-width="6" stroke-miterlimit="10" stroke-linecap="round" stroke-linejoin="round"/>
<path d="M879.5 503.3H817.6V534.2H867.8" stroke="#E5E5E5" stroke-width="6" stroke-miterlimit="10" stroke-linecap="round" stroke-linejoin="round"/>
<path d="M900.6 472.3H848.6V503.3H879.5" stroke="#E5E5E5" stroke-width="6" stroke-miterlimit="10" stroke-linecap="round" stroke-linejoin="round"/>
<path d="M742.1 503.3H786.7V472.3H765.3" stroke="#E5E5E5" stroke-width="6" stroke-miterlimit="10" stroke-linecap="round" stroke-linejoin="round"/>
<path d="M587 307.9C617.928 307.9 643 282.828 643 251.9C643 220.972 617.928 195.9 587 195.9C556.072 195.9 531 220.972 531 251.9C531 282.828 556.072 307.9 587 307.9Z" stroke="#E5E5E5" stroke-width="6" stroke-miterlimit="10" stroke-linecap="round" stroke-linejoin="round"/>
<path d="M587 201.6V207" stroke="#E5E5E5" stroke-width="6" stroke-miterlimit="10" stroke-linecap="round" stroke-linejoin="round"/>
<path d="M587 296.7V302.1" stroke="#E5E5E5" stroke-width="6" stroke-miterlimit="10" stroke-linecap="round" stroke-linejoin="round"/>
<path d="M637.3 251.9H631.9" stroke="#E5E5E5" stroke-width="6" stroke-miterlimit="10" stroke-linecap="round" stroke-linejoin="round"/>
<path d="M542.2 251.9H536.7" stroke="#E5E5E5" stroke-width="6" stroke-miterlimit="10" stroke-linecap="round" stroke-linejoin="round"/>
<path d="M587 256.4C589.485 256.4 591.5 254.385 591.5 251.9C591.5 249.415 589.485 247.4 587 247.4C584.515 247.4 582.5 249.415 582.5 251.9C582.5 254.385 584.515 256.4 587 256.4Z" fill="#E5E5E5"/>
<path d="M587 251.9L611.2 222" stroke="#E5E5E5" stroke-width="4" stroke-miterlimit="10" stroke-linecap="round" stroke-linejoin="round"/>
<path d="M571.8 236.9L587 251.9" stroke="#E5E5E5" stroke-width="6" stroke-miterlimit="10" stroke-linecap="round" stroke-linejoin="round"/>
<path d="M259.1 252.9H135.8V378.2H259.1V252.9Z" stroke="#E5E5E5" stroke-width="8" stroke-miterlimit="10" stroke-linecap="round" stroke-linejoin="round"/>
<path d="M241.894 358.916L241.894 272.416H152.994V358.916H241.894Z" stroke="#E5E5E5" stroke-width="4" stroke-miterlimit="10" stroke-linecap="round" stroke-linejoin="round"/>
<path d="M397.8 213H289.2V290.8H397.8V213Z" stroke="#E5E5E5" stroke-width="8" stroke-miterlimit="10" stroke-linecap="round" stroke-linejoin="round"/>
<path d="M381.891 274.811V228.911H305.191V274.811H381.891Z" stroke="#E5E5E5" stroke-width="4" stroke-miterlimit="10" stroke-linecap="round" stroke-linejoin="round"/>
<path d="M352.847 412.719V340.119H305.147V412.719H352.847Z" stroke="#E5E5E5" stroke-width="4" stroke-miterlimit="10" stroke-linecap="round" stroke-linejoin="round"/>
<path d="M368.8 324.2H289.2V428.7H368.8V324.2Z" stroke="#E5E5E5" stroke-width="8" stroke-miterlimit="10" stroke-linecap="round" stroke-linejoin="round"/>
<path d="M833.8 784.2H841.7" stroke="#A83727" stroke-width="6" stroke-miterlimit="10" stroke-linecap="round" stroke-linejoin="round"/>
<path d="M802.3 784.2H820.8" stroke="#A83727" stroke-width="6" stroke-miterlimit="10" stroke-linecap="round" stroke-linejoin="round"/>
<path d="M473 784.2H788.3" stroke="#A83727" stroke-width="6" stroke-miterlimit="10" stroke-linecap="round" stroke-linejoin="round"/>
<path d="M200 784.2H452" stroke="#A83727" stroke-width="6" stroke-miterlimit="10" stroke-linecap="round" stroke-linejoin="round"/>
<path d="M156.5 784.2H178.5" stroke="#A83727" stroke-width="6" stroke-miterlimit="10" stroke-linecap="round" stroke-linejoin="round"/>
<path d="M126.5 784.2H138.5" stroke="#A83727" stroke-width="6" stroke-miterlimit="10" stroke-linecap="round" stroke-linejoin="round"/>
<path d="M330.9 674.4C312.7 662.8 280.6 642.4 266.7 600C257 570.4 256.8 533.2 267.2 529.7C279.3 525.7 300.4 568.5 308.1 564.8C314.2 561.9 301.5 535.4 299.8 490.5C298.6 459.9 303 433.6 316.8 410.2C323.1 399.5 327.7 391.6 332.8 392.2C353.7 394.6 347.8 536.2 370.1 538.9C380.6 540.2 389 509.7 400.8 512.2C410.8 514.3 417.5 539 419.3 555C419.4 555.8 419.5 556.4 419.5 556.9C424.7 608.8 394.4 646.2 384.2 658.9C368.9 677.7 358.6 681.5 350.6 681.6C342.2 681.5 335.8 677.6 330.9 674.4Z" fill="#6DCCA3"/>
<path d="M325.5 477C329 514 350 570.3 353.1 618C355.1 649.1 353.2 676.5 350.1 699" stroke="#465172" stroke-width="6" stroke-miterlimit="10" stroke-linecap="round" stroke-linejoin="round"/>
<path d="M422 784.2H267C251.4 756.6 252 722.7 268.5 695.7L291.3 658.4H397.6L419.7 692.9C436.1 718.4 438 750.7 424.9 778L422 784.2Z" fill="#2359B2"/>
<path d="M375 561.9C375 561.9 374.6 578.9 351.2 601" stroke="#465172" stroke-width="6" stroke-miterlimit="10" stroke-linecap="round" stroke-linejoin="round"/>
<path d="M301.1 601C301.1 601 316.8 633 353.9 633" stroke="#465172" stroke-width="6" stroke-miterlimit="10" stroke-linecap="round" stroke-linejoin="round"/>
<path opacity="0.67" d="M382.3 684.8C382.3 684.8 405.9 700.2 405.9 737.1" stroke="#1E2A54" stroke-width="6" stroke-miterlimit="10" stroke-linecap="round" stroke-linejoin="round"/>
<path d="M63.2 959.2C63.2 961.7 62 962.9 60.6 962.9C59.5 962.9 58.7 962.4 58.5 961.5C58.1 962 57.5 962.3 56.7 962.3C55.2 962.3 54.1 961.1 54.1 959.5C54.1 957.9 55.2 956.7 56.7 956.7C57.4 956.7 57.9 957 58.3 957.4V956.9H59.9V960.8C59.9 961.6 60.2 962.2 60.9 962.2C61.8 962.2 62.6 961.3 62.6 959.2C62.6 956.2 60.3 953.9 57.2 953.9C54.1 953.9 51.6 956.3 51.6 959.6C51.6 962.9 54.1 965.3 57.5 965.3C58.6 965.3 59.6 965.1 60.4 964.9V965.5C59.6 965.8 58.7 965.9 57.5 965.9C53.8 965.9 51 963.3 51 959.7C51 956.3 53.7 953.5 57.2 953.5C61.1 953.3 63.2 956.4 63.2 959.2ZM58.3 959.5C58.3 958.7 57.7 958.1 57 958.1C56.2 958.1 55.7 958.6 55.7 959.5C55.7 960.3 56.3 960.8 57 960.8C57.8 960.9 58.3 960.3 58.3 959.5Z" fill="#2359B2"/>
<path d="M69.4 955.1V957.1C68.2 957 66.8 957.6 66.8 959.5V963.8H64.9V955.2H66.8V956.6C67.3 955.5 68.3 955.1 69.4 955.1Z" fill="#2359B2"/>
<path d="M74.6 962.3C75.6 962.3 76.4 961.8 76.8 961.2L78.3 962.1C77.5 963.3 76.2 964 74.5 964C71.7 964 69.8 962.1 69.8 959.5C69.8 957 71.6 955 74.3 955C76.9 955 78.6 957.1 78.6 959.5C78.6 959.8 78.6 960 78.5 960.3H71.7C72.1 961.6 73.2 962.3 74.6 962.3ZM76.9 958.8C76.6 957.3 75.6 956.7 74.4 956.7C73 956.7 72.1 957.5 71.8 958.8H76.9Z" fill="#2359B2"/>
<path d="M88.9 955.2V963.8H87V962.6C86.3 963.5 85.3 964.1 84 964.1C81.7 964.1 79.7 962.1 79.7 959.6C79.7 957 81.6 955.1 84 955.1C85.3 955.1 86.3 955.6 87 956.5V955.3H88.9V955.2ZM87.1 959.5C87.1 957.9 85.9 956.8 84.4 956.8C82.9 956.8 81.7 957.9 81.7 959.5C81.7 961.1 82.9 962.2 84.4 962.2C85.9 962.3 87.1 961.1 87.1 959.5Z" fill="#2359B2"/>
<path d="M91.1 951.3H93V963.8H91.1V951.3Z" fill="#2359B2"/>
<path d="M102.9 955.2L99.6 963.8H97.5L94.2 955.2H96.2L98.6 961.7L101 955.2H102.9Z" fill="#2359B2"/>
<path d="M104.2 955.2H106.1V964.1C106.1 966.5 104.9 967.6 102.6 967.4V965.6C103.7 965.7 104.3 965.3 104.3 964.1V955.2H104.2ZM104 952.8C104 952.1 104.5 951.6 105.2 951.6C105.9 951.6 106.4 952.1 106.4 952.8C106.4 953.4 105.9 954 105.2 954C104.5 954 104 953.4 104 952.8Z" fill="#2359B2"/>
<path d="M116 955.2L112.7 964C111.9 966.2 110.5 967.3 108.5 967.2V965.5C109.7 965.6 110.4 965 110.8 963.8L110.9 963.6L107.3 955.2H109.3L111.9 961.4L114.1 955.2H116V955.2Z" fill="#2359B2"/>
<path d="M211.9 938.7C211.9 940.8 210.4 942.5 208.3 942.5H205.3V934.9H208.3C210.4 934.9 211.9 936.6 211.9 938.7ZM210.9 938.7C210.9 937.1 209.8 935.8 208.3 935.8H206.3V941.5H208.3C209.8 941.6 210.9 940.3 210.9 938.7Z" fill="#2359B2"/>
<path d="M219.5 940.8H216.1L215.5 942.5H214.4L217.2 934.9H218.3L221.1 942.5H220L219.5 940.8ZM219.2 939.9L217.8 936.1L216.4 939.9H219.2Z" fill="#2359B2"/>
<path d="M226.4 939.4V942.5H225.4V939.4L222.7 934.9H223.8L225.9 938.5L228 934.9H229.1L226.4 939.4Z" fill="#2359B2"/>
<path d="M242.1 940.1C242.1 941.6 241 942.7 239.5 942.7C238 942.7 236.9 941.6 236.9 940.1C236.9 939.5 237.1 939 237.4 938.6L239.9 934.9H241.1L239.3 937.6C239.4 937.6 239.5 937.6 239.7 937.6C241 937.5 242.1 938.6 242.1 940.1ZM241.1 940.1C241.1 939.1 240.4 938.5 239.5 938.5C238.5 938.5 237.9 939.1 237.9 940.1C237.9 941.1 238.6 941.7 239.5 941.7C240.4 941.7 241.1 941 241.1 940.1Z" fill="#2359B2"/>
<path d="M250.3 940.4C250.3 941.8 249.2 942.6 247.7 942.6C246.2 942.6 245.1 941.8 245.1 940.4C245.1 939.6 245.6 938.9 246.3 938.5C245.7 938.2 245.4 937.6 245.4 936.8C245.4 935.3 246.6 934.6 247.8 934.6C249 934.6 250.2 935.3 250.2 936.8C250.2 937.6 249.8 938.1 249.3 938.5C249.8 938.9 250.3 939.6 250.3 940.4ZM249.3 940.4C249.3 939.5 248.6 939.1 247.7 939.1C246.8 939.1 246.1 939.5 246.1 940.4C246.1 941.3 246.8 941.7 247.7 941.7C248.6 941.7 249.3 941.2 249.3 940.4ZM246.3 936.9C246.3 937.7 246.9 938.1 247.7 938.1C248.4 938.1 249.1 937.7 249.1 936.9C249.1 936.1 248.5 935.7 247.7 935.7C247 935.7 246.3 936.1 246.3 936.9Z" fill="#2359B2"/>
<path d="M58.9001 938.7C58.9001 940.8 57.4 942.5 55.3 942.5H52.3V934.9H55.3C57.4 934.9 58.9001 936.6 58.9001 938.7ZM57.9001 938.7C57.9001 937.1 56.8 935.8 55.3 935.8H53.3V941.5H55.3C56.8 941.6 57.9001 940.3 57.9001 938.7Z" fill="#2359B2"/>
<path d="M67 941.6V942.6H62.4V935H66.9V936H63.4V938.3H66.6V939.2H63.4V941.6H67V941.6Z" fill="#2359B2"/>
<path d="M70 940.8L70.9 940.3C71.2 941.1 71.8 941.7 72.9 941.7C74 941.7 74.5 941.2 74.5 940.5C74.5 939.7 73.8 939.5 72.7 939.1C71.5 938.7 70.3 938.3 70.3 936.9C70.3 935.5 71.4 934.7 72.7 934.7C74 934.7 74.9 935.4 75.3 936.4L74.5 936.9C74.2 936.2 73.7 935.7 72.8 935.7C72 935.7 71.4 936.1 71.4 936.8C71.4 937.5 71.9 937.8 73 938.1C74.3 938.5 75.6 938.9 75.6 940.4C75.6 941.7 74.5 942.6 73 942.6C71.5 942.7 70.4 941.9 70 940.8Z" fill="#2359B2"/>
<path d="M80 934.9V942.5H79V934.9H80Z" fill="#2359B2"/>
<path d="M91.3001 939.2C91.3001 941.1 89.9001 942.7 87.6001 942.7C85.2001 942.7 83.6001 940.9 83.6001 938.7C83.6001 936.5 85.3001 934.7 87.6001 934.7C89.0001 934.7 90.3001 935.5 90.9001 936.5L90.0001 937C89.6001 936.2 88.6001 935.6 87.6001 935.6C85.8001 935.6 84.6001 936.9 84.6001 938.6C84.6001 940.3 85.8001 941.6 87.6001 941.6C89.2001 941.6 90.1001 940.7 90.3001 939.6H87.5001V938.7H91.3001V939.2V939.2Z" fill="#2359B2"/>
<path d="M100.6 934.9V942.5H99.8L95.9 936.8V942.5H94.9V934.9H95.7L99.6 940.6V934.9H100.6Z" fill="#2359B2"/>
<path d="M109.1 941.6V942.6H104.5V935H109V936H105.5V938.3H108.7V939.2H105.5V941.6H109.1V941.6Z" fill="#2359B2"/>
<path d="M119.2 938.7C119.2 940.8 117.7 942.5 115.6 942.5H112.6V934.9H115.6C117.6 934.9 119.2 936.6 119.2 938.7ZM118.2 938.7C118.2 937.1 117.1 935.8 115.6 935.8H113.6V941.5H115.6C117.1 941.6 118.2 940.3 118.2 938.7Z" fill="#2359B2"/>
<path d="M133.2 940.4C133.2 941.6 132.2 942.6 131 942.6H127.7V935H130.7C131.9 935 132.8 935.9 132.8 937.1C132.8 937.8 132.5 938.3 132 938.7C132.7 938.9 133.2 939.5 133.2 940.4ZM128.7 935.8V938.1H130.7C131.3 938.1 131.8 937.6 131.8 936.9C131.8 936.3 131.3 935.7 130.7 935.7H128.7V935.8ZM132.2 940.3C132.2 939.6 131.7 939.1 131 939.1H128.7V941.6H131C131.7 941.6 132.2 941 132.2 940.3Z" fill="#2359B2"/>
<path d="M139.4 939.4V942.5H138.4V939.4L135.7 934.9H136.8L138.9 938.5L141 934.9H142.1L139.4 939.4Z" fill="#2359B2"/>
<path d="M214.8 951.9V964.3H212.8V958.9H207.5V964.3H205.5V951.9H207.5V957H212.8V951.9H214.8Z" fill="#2359B2"/>
<path d="M226.1 955.4V964.3H224.2V963C223.5 963.9 222.5 964.5 221.1 964.5C218.7 964.5 216.7 962.5 216.7 959.8C216.7 957.2 218.7 955.1 221.1 955.1C222.5 955.1 223.5 955.7 224.2 956.6V955.3H226.1V955.4ZM224.2 959.9C224.2 958.3 223 957.1 221.4 957.1C219.8 957.1 218.6 958.3 218.6 959.9C218.6 961.5 219.8 962.7 221.4 962.7C223 962.7 224.2 961.5 224.2 959.9Z" fill="#2359B2"/>
<path d="M237.8 959.9C237.8 962.5 235.8 964.6 233.4 964.6C232 964.6 231 964 230.3 963.1V967.9H228.4V955.5H230.3V956.8C231 955.9 232 955.3 233.4 955.3C235.8 955.2 237.8 957.3 237.8 959.9ZM235.9 959.9C235.9 958.3 234.7 957.1 233.1 957.1C231.5 957.1 230.3 958.3 230.3 959.9C230.3 961.5 231.5 962.7 233.1 962.7C234.6 962.7 235.9 961.5 235.9 959.9Z" fill="#2359B2"/>
<path d="M248.9 959.9C248.9 962.5 246.9 964.6 244.5 964.6C243.1 964.6 242.1 964 241.4 963.1V967.9H239.5V955.5H241.4V956.8C242.1 955.9 243.1 955.3 244.5 955.3C246.9 955.2 248.9 957.3 248.9 959.9ZM247 959.9C247 958.3 245.8 957.1 244.2 957.1C242.6 957.1 241.4 958.3 241.4 959.9C241.4 961.5 242.6 962.7 244.2 962.7C245.8 962.7 247 961.5 247 959.9Z" fill="#2359B2"/>
<path d="M258.3 955.4L254.9 964.5C254.1 966.7 252.6 967.9 250.6 967.8V966C251.8 966.1 252.5 965.4 253 964.3L253.1 964.1L249.3 955.4H251.4L254 961.8L256.3 955.4H258.3V955.4Z" fill="#2359B2"/>
<path d="M263.4 958.1C263.4 954.5 266.1 951.7 269.9 951.7C272.2 951.7 274.2 952.9 275.2 954.7L273.4 955.7C272.7 954.5 271.4 953.7 269.8 953.7C267.1 953.7 265.4 955.6 265.4 958.1C265.4 960.6 267.2 962.5 269.8 962.5C271.4 962.5 272.7 961.7 273.4 960.5L275.2 961.5C274.2 963.3 272.2 964.5 269.9 964.5C266.2 964.5 263.4 961.7 263.4 958.1Z" fill="#2359B2"/>
<path d="M285.7 955.4V964.3H283.8V963C283.1 963.9 282.1 964.5 280.7 964.5C278.3 964.5 276.3 962.5 276.3 959.8C276.3 957.2 278.3 955.1 280.7 955.1C282.1 955.1 283.1 955.7 283.8 956.6V955.3H285.7V955.4ZM283.8 959.9C283.8 958.3 282.6 957.1 281 957.1C279.4 957.1 278.2 958.3 278.2 959.9C278.2 961.5 279.4 962.7 281 962.7C282.6 962.7 283.8 961.5 283.8 959.9Z" fill="#2359B2"/>
<path d="M290.7 957.3V961.5C290.7 962.6 291.4 962.6 292.9 962.5V964.2C290 964.6 288.8 963.7 288.8 961.4V957.2H287.2V955.4H288.8V953.5L290.7 952.9V955.4H292.9V957.2H290.7V957.3Z" fill="#2359B2"/>
<path d="M846.1 938.7C846.1 940.8 844.6 942.5 842.5 942.5H839.5V934.9H842.5C844.6 934.9 846.1 936.6 846.1 938.7ZM845.2 938.7C845.2 937.1 844.1 935.8 842.6 935.8H840.6V941.5H842.6C844.1 941.6 845.2 940.3 845.2 938.7Z" fill="#2359B2"/>
<path d="M849.3 938.7C849.3 936.5 851 934.7 853.2 934.7C855.4 934.7 857.2 936.5 857.2 938.7C857.2 940.9 855.5 942.7 853.2 942.7C851 942.7 849.3 940.9 849.3 938.7ZM856.1 938.7C856.1 937 854.8 935.7 853.2 935.7C851.5 935.7 850.3 937 850.3 938.7C850.3 940.4 851.6 941.7 853.2 941.7C854.9 941.7 856.1 940.4 856.1 938.7Z" fill="#2359B2"/>
<path d="M859.8 934.9H860.9L862.6 941.2L864.5 934.9H865.5L867.4 941.2L869.1 934.9H870.2L868 942.5H866.8L865 936.4L863.2 942.5H862L859.8 934.9Z" fill="#2359B2"/>
<path d="M879.3 934.9V942.5H878.5L874.6 936.8V942.5H873.6V934.9H874.4L878.3 940.6V934.9H879.3Z" fill="#2359B2"/>
<path d="M887.5 941.6V942.6H883.2V935H884.2V941.7H887.5V941.6Z" fill="#2359B2"/>
<path d="M889.9 938.7C889.9 936.5 891.6 934.7 893.8 934.7C896 934.7 897.8 936.5 897.8 938.7C897.8 940.9 896.1 942.7 893.8 942.7C891.6 942.7 889.9 940.9 889.9 938.7ZM896.8 938.7C896.8 937 895.5 935.7 893.9 935.7C892.2 935.7 891 937 891 938.7C891 940.4 892.3 941.7 893.9 941.7C895.5 941.7 896.8 940.4 896.8 938.7Z" fill="#2359B2"/>
<path d="M905.4 940.8H902L901.4 942.5H900.3L903.1 934.9H904.2L907 942.5H906L905.4 940.8ZM905.1 939.9L903.7 936.1L902.3 939.9H905.1Z" fill="#2359B2"/>
<path d="M916.9 938.7C916.9 940.8 915.4 942.5 913.3 942.5H910.3V934.9H913.3C915.4 934.9 916.9 936.6 916.9 938.7ZM915.9 938.7C915.9 937.1 914.8 935.8 913.3 935.8H911.3V941.5H913.3C914.9 941.6 915.9 940.3 915.9 938.7Z" fill="#2359B2"/>
<path d="M926.5 935.8V938.3H929.7V939.3H926.5V942.5H925.5V934.9H929.9V935.9H926.5V935.8Z" fill="#2359B2"/>
<path d="M936.2 939.6H934.4V942.5H933.4V934.9H936.4C937.7 934.9 938.8 936 938.8 937.3C938.8 938.3 938.1 939.2 937.2 939.5L939 942.6H937.9L936.2 939.6ZM934.4 938.7H936.4C937.2 938.7 937.8 938.1 937.8 937.3C937.8 936.5 937.2 935.9 936.4 935.9H934.4V938.7Z" fill="#2359B2"/>
<path d="M941.9 938.7C941.9 936.5 943.6 934.7 945.8 934.7C948 934.7 949.8 936.5 949.8 938.7C949.8 940.9 948.1 942.7 945.8 942.7C943.6 942.7 941.9 940.9 941.9 938.7ZM948.8 938.7C948.8 937 947.5 935.7 945.9 935.7C944.2 935.7 943 937 943 938.7C943 940.4 944.3 941.7 945.9 941.7C947.5 941.7 948.8 940.4 948.8 938.7Z" fill="#2359B2"/>
<path d="M960.4 942.5H959.4V936.5L956.9 940.7H956.8L954.3 936.6V942.5H953.3V934.9H954.4L956.8 938.9L959.2 934.9H960.3V942.5H960.4Z" fill="#2359B2"/>
<path d="M839.3 952.9C839.3 952.2 839.8 951.7 840.5 951.7C841.2 951.7 841.7 952.2 841.7 952.9C841.7 953.6 841.2 954.1 840.5 954.1C839.9 954.1 839.3 953.6 839.3 952.9ZM839.6 955.4H841.5V964.3H839.6V955.4Z" fill="#2359B2"/>
<path d="M843.7 951.4H845.6V964.3H843.7V951.4Z" fill="#2359B2"/>
<path d="M847.8 951.4H849.7V964.3H847.8V951.4Z" fill="#2359B2"/>
<path d="M852 951.4H853.9V964.3H852V951.4Z" fill="#2359B2"/>
<path d="M864 955.4V964.3H862.1V963.2C861.5 964.1 860.6 964.6 859.4 964.6C857.4 964.6 856 963.3 856 961V955.6H857.9V960.8C857.9 962.1 858.7 962.9 859.9 962.9C861.2 962.9 862.1 962.2 862.1 960.4V955.7H864V955.4Z" fill="#2359B2"/>
<path d="M872.6 961.8C872.6 963.6 871.1 964.5 869.1 964.5C867.3 964.5 866.1 963.7 865.5 962.4L867.1 961.4C867.4 962.2 868.1 962.7 869.1 962.7C869.9 962.7 870.6 962.4 870.6 961.7C870.6 960.1 865.8 961 865.8 957.8C865.8 956.1 867.2 955.1 869 955.1C870.5 955.1 871.7 955.8 872.3 956.9L870.7 957.8C870.4 957.1 869.8 956.8 869 956.8C868.3 956.8 867.7 957.1 867.7 957.7C867.9 959.5 872.6 958.5 872.6 961.8Z" fill="#2359B2"/>
<path d="M876.7 957.3V961.5C876.7 962.6 877.4 962.6 878.9 962.5V964.2C876 964.6 874.8 963.7 874.8 961.4V957.2H873.2V955.4H874.8V953.5L876.7 952.9V955.4H878.9V957.2H876.7V957.3Z" fill="#2359B2"/>
<path d="M885.4 955.3V957.4C884.1 957.3 882.7 957.9 882.7 959.9V964.4H880.8V955.5H882.7V957C883.2 955.7 884.2 955.3 885.4 955.3Z" fill="#2359B2"/>
<path d="M895.3 955.4V964.3H893.4V963C892.7 963.9 891.7 964.5 890.3 964.5C887.9 964.5 885.9 962.5 885.9 959.8C885.9 957.2 887.9 955.1 890.3 955.1C891.7 955.1 892.7 955.7 893.4 956.6V955.3H895.3V955.4ZM893.4 959.9C893.4 958.3 892.2 957.1 890.6 957.1C889 957.1 887.8 958.3 887.8 959.9C887.8 961.5 889 962.7 890.6 962.7C892.2 962.7 893.4 961.5 893.4 959.9Z" fill="#2359B2"/>
<path d="M900.3 957.3V961.5C900.3 962.6 901 962.6 902.5 962.5V964.2C899.6 964.6 898.4 963.7 898.4 961.4V957.2H896.8V955.4H898.4V953.5L900.3 952.9V955.4H902.5V957.2H900.3V957.3Z" fill="#2359B2"/>
<path d="M903.9 952.9C903.9 952.2 904.4 951.7 905.1 951.7C905.8 951.7 906.3 952.2 906.3 952.9C906.3 953.6 905.8 954.1 905.1 954.1C904.5 954.1 903.9 953.6 903.9 952.9ZM904.2 955.4H906.1V964.3H904.2V955.4Z" fill="#2359B2"/>
<path d="M907.8 959.9C907.8 957.3 909.9 955.2 912.5 955.2C915.1 955.2 917.2 957.2 917.2 959.9C917.2 962.5 915.1 964.6 912.5 964.6C909.9 964.5 907.8 962.5 907.8 959.9ZM915.3 959.9C915.3 958.3 914.1 957.1 912.5 957.1C910.9 957.1 909.7 958.3 909.7 959.9C909.7 961.5 910.9 962.7 912.5 962.7C914.1 962.7 915.3 961.5 915.3 959.9Z" fill="#2359B2"/>
<path d="M927 958.9V964.3H925.1V959.1C925.1 957.8 924.3 957 923.1 957C921.8 957 920.9 957.7 920.9 959.5V964.2H919V955.3H920.9V956.4C921.5 955.5 922.4 955 923.6 955C925.5 955.2 927 956.6 927 958.9Z" fill="#2359B2"/>
<path d="M935.5 961.8C935.5 963.6 934 964.5 932 964.5C930.2 964.5 929 963.7 928.4 962.4L930 961.4C930.3 962.2 931 962.7 932 962.7C932.8 962.7 933.5 962.4 933.5 961.7C933.5 960.1 928.7 961 928.7 957.8C928.7 956.1 930.1 955.1 931.9 955.1C933.4 955.1 934.6 955.8 935.2 956.9L933.6 957.8C933.3 957.1 932.7 956.8 931.9 956.8C931.2 956.8 930.6 957.1 930.6 957.7C930.7 959.5 935.5 958.5 935.5 961.8Z" fill="#2359B2"/>
<path d="M936.8 963.2C936.8 962.5 937.4 961.9 938.1 961.9C938.8 961.9 939.4 962.5 939.4 963.2C939.4 963.9 938.8 964.5 938.1 964.5C937.4 964.5 936.8 963.9 936.8 963.2Z" fill="#2359B2"/>
<path d="M940.3 959.9C940.3 957.3 942.3 955.2 945 955.2C946.7 955.2 948.2 956.1 948.9 957.5L947.3 958.5C946.9 957.7 946 957.1 945 957.1C943.4 957.1 942.3 958.3 942.3 959.9C942.3 961.5 943.5 962.7 945 962.7C946.1 962.7 946.9 962.2 947.4 961.3L949 962.2C948.3 963.6 946.8 964.5 945 964.5C942.3 964.5 940.3 962.5 940.3 959.9Z" fill="#2359B2"/>
<path d="M949.7 959.9C949.7 957.3 951.8 955.2 954.4 955.2C957 955.2 959.1 957.2 959.1 959.9C959.1 962.5 957 964.6 954.4 964.6C951.8 964.5 949.7 962.5 949.7 959.9ZM957.2 959.9C957.2 958.3 956 957.1 954.4 957.1C952.8 957.1 951.6 958.3 951.6 959.9C951.6 961.5 952.8 962.7 954.4 962.7C956 962.7 957.2 961.5 957.2 959.9Z" fill="#2359B2"/>
<path d="M523.6 794C523.6 823.2 573.5 847 635 847C683.2 847 724.2 832.5 739.7 812.1L623.2 820.5L523.6 794Z" fill="#D6D6D6"/>
<path d="M723.7 791.1C720.8 790.5 717.7 790.8 715 791.9C697.4 798.8 666.6 803.4 631.6 803.4C576.9 803.4 532.6 792.2 532.6 778.4C532.6 766.2 567.3 756 613.2 753.8L616.4 737.1C553.5 741 505.7 760.5 505.7 783.9C505.7 810.1 565.7 831.4 639.7 831.4C672.1 831.4 701.8 827.3 725 820.5C740 816 739.1 794.3 723.7 791.1Z" fill="#F78A21"/>
<path opacity="0.26" d="M671.1 801.3L719.1 790.8C719.1 790.8 731.7 792.1 734 798.8C738 810.2 729.8 817.2 729.8 817.2C729.8 817.2 726.7 790.8 671.1 801.3Z" fill="#9B463D"/>
<path d="M723.7 791.1C720.8 790.5 717.7 790.8 715 791.9C697.4 798.8 666.6 803.4 631.6 803.4C576.9 803.4 532.6 792.2 532.6 778.4C532.6 766.2 567.3 756 613.2 753.8L616.4 737.1C553.5 741 505.7 760.5 505.7 783.9C505.7 810.1 565.7 831.4 639.7 831.4C672.1 831.4 701.8 827.3 725 820.5C740 816 739.1 794.3 723.7 791.1Z" stroke="#A83727" stroke-width="6" stroke-miterlimit="10" stroke-linecap="round" stroke-linejoin="round"/>
<path d="M714.3 439.9C698.3 434.8 680.6 431.9 662.1 431.9C643.7 431.9 626.2 434.7 610.2 439.7C600.5 417 587.3 398.5 573.4 387C571.2 385.2 567.9 385.8 566.5 388.3C538.8 438.4 526.4 495.7 531.6 558.2C536.4 628 563.3 704.7 588.8 784H735.6C761.2 704.8 787.8 628.9 792.8 560C798.3 497.1 785.7 439.6 757.2 389C755.8 386.5 752.5 385.9 750.3 387.7C736.7 399.3 723.8 417.5 714.3 439.9Z" fill="#F78A21"/>
<path opacity="0.26" d="M674.4 533.9C674.4 537.6 668.9 540.6 662 540.6C655.2 540.6 649.6 537.6 649.6 533.9L662.1 531.1L674.4 533.9Z" fill="#9B463D"/>
<path opacity="0.26" d="M713.3 782.6C713.3 782.6 713.3 774.7 714.8 768.1C728 709.4 719.3 691.3 719.3 691.3L691.5 782.8L713.3 782.6Z" fill="#9B463D"/>
<path opacity="0.26" d="M608.8 782.6C608.8 782.6 608.8 774.7 607.3 768.1C594.1 709.4 602.8 691.3 602.8 691.3L630.6 782.8L608.8 782.6Z" fill="#9B463D"/>
<path d="M714.3 439.9C698.3 434.8 680.6 431.9 662.1 431.9C643.7 431.9 626.2 434.7 610.2 439.7C600.5 417 587.3 398.5 573.4 387C571.2 385.2 567.9 385.8 566.5 388.3C538.8 438.4 526.4 495.7 531.6 558.2C536.4 628 563.3 704.7 588.8 784H735.6C761.2 704.8 787.8 628.9 792.8 560C798.3 497.1 785.7 439.6 757.2 389C755.8 386.5 752.5 385.9 750.3 387.7C736.7 399.3 723.8 417.5 714.3 439.9Z" stroke="#A83727" stroke-width="6" stroke-miterlimit="10" stroke-linecap="round" stroke-linejoin="round"/>
<path d="M620.6 487.8C625.018 487.8 628.6 484.218 628.6 479.8C628.6 475.382 625.018 471.8 620.6 471.8C616.182 471.8 612.6 475.382 612.6 479.8C612.6 484.218 616.182 487.8 620.6 487.8Z" fill="#A83727"/>
<path d="M703.6 487.8C708.018 487.8 711.6 484.218 711.6 479.8C711.6 475.382 708.018 471.8 703.6 471.8C699.182 471.8 695.6 475.382 695.6 479.8C695.6 484.218 699.182 487.8 703.6 487.8Z" fill="#A83727"/>
<path d="M668.8 506.7C664.4 506.3 660 506.3 655.6 506.7C653.5 506.9 652.8 509 654.4 510.1C655.8 511 657.2 511.9 658.6 512.9C660.6 514.3 663.9 514.3 665.9 512.9C667.3 511.9 668.7 511 670.1 510.1C671.6 509 670.8 506.9 668.8 506.7Z" fill="#A83727"/>
<path d="M719.1 694.2C717.4 723.7 703.7 754.7 694.3 784.2C684.6 784.2 662.1 784.2 662.1 784.2L662.3 701.1" fill="#F78A21"/>
<path d="M605 694.2C606.7 723.7 623.4 754.7 632.8 784.2C642.5 784.2 662 784.2 662 784.2L661.8 701.1" fill="#F78A21"/>
<path d="M680.5 533C678.7 534 676.5 534.6 674.3 534.6C667.6 534.6 662.2 529.7 662.2 523.7" stroke="#A83727" stroke-width="6" stroke-miterlimit="10" stroke-linecap="round" stroke-linejoin="round"/>
<path d="M643.7 533C645.5 534 647.7 534.6 649.9 534.6C656.6 534.6 662 529.7 662 523.7" stroke="#A83727" stroke-width="6" stroke-miterlimit="10" stroke-linecap="round" stroke-linejoin="round"/>
<path d="M719.1 694.2C717.4 723.7 700.7 754.7 691.3 784.2C681.6 784.2 662.1 784.2 662.1 784.2L662.3 701.1" stroke="#A83727" stroke-width="6" stroke-miterlimit="10" stroke-linecap="round" stroke-linejoin="round"/>
<path d="M605 694.2C606.7 723.7 620.4 754.7 629.8 784.2C639.5 784.2 662 784.2 662 784.2L661.8 701.1" stroke="#A83727" stroke-width="6" stroke-miterlimit="10" stroke-linecap="round" stroke-linejoin="round"/>
<path opacity="0.26" d="M729.1 451.4C736.5 428.7 747.3 422.9 747.3 422.9C747.3 422.9 755.1 425.8 755.1 456.7" fill="#9B463D"/>
<path opacity="0.26" d="M595.1 451.4C587.7 428.7 576.9 422.9 576.9 422.9C576.9 422.9 569.1 425.8 569.1 456.7" fill="#9B463D"/>
<path d="M644.3 772.2L646.8 783.5" stroke="#A83727" stroke-width="6" stroke-miterlimit="10" stroke-linecap="round" stroke-linejoin="round"/>
<path d="M679.9 772.2L677.4 783.5" stroke="#A83727" stroke-width="6" stroke-miterlimit="10" stroke-linecap="round" stroke-linejoin="round"/>
<g opacity="0.24">
<path opacity="0.24" d="M707 528.7C719.1 531.9 731.6 532.5 743.6 530.7" stroke="#A83727" stroke-width="2" stroke-miterlimit="10" stroke-linecap="round" stroke-linejoin="round"/>
<path opacity="0.24" d="M703.6 536.3C714.6 543.3 726 548.1 737 550.6" stroke="#A83727" stroke-width="2" stroke-miterlimit="10" stroke-linecap="round" stroke-linejoin="round"/>
<path opacity="0.24" d="M707 517.9C716.9 517.2 727.1 514.5 737 509.8" stroke="#A83727" stroke-width="2" stroke-miterlimit="10" stroke-linecap="round" stroke-linejoin="round"/>
<path opacity="0.24" d="M617.2 528.7C605.1 531.9 592.6 532.5 580.6 530.7" stroke="#A83727" stroke-width="2" stroke-miterlimit="10" stroke-linecap="round" stroke-linejoin="round"/>
<path opacity="0.24" d="M620.6 536.3C609.6 543.3 598.2 548.1 587.2 550.6" stroke="#A83727" stroke-width="2" stroke-miterlimit="10" stroke-linecap="round" stroke-linejoin="round"/>
<path opacity="0.24" d="M617.2 517.9C607.3 517.2 597.1 514.5 587.2 509.8" stroke="#A83727" stroke-width="2" stroke-miterlimit="10" stroke-linecap="round" stroke-linejoin="round"/>
</g>
</svg>
